# xmcd CD database file
# Copyright (C) 1997 Ti Kan
#
# Track frame offsets:
#  182
#  20172
#  40252
#  54952
#  66680
#  79377
#  90072
#  101912
#  112167
#  123867
#  133797
#  149137
#  159657
#  177920
#  190067
#
# Disc length: 2853 seconds
#
# Revision: 2
# Processed by: cddbd v1.4PL0 Copyright (c) Steve Scherf et al.
# Submitted via: Gronk 1.4
#
DISCID=dd0b230f
DTITLE=Leon Russell - Hank Wilson's Back
DYEAR=1900
DGENRE=country
TTITLE0=Roll In My Sweet Baby's Arms
TTITLE1=She Thinks I Still Care
TTITLE2=I'm So Lonesome I Could Cry
TTITLE3=I'll Sail My Ship Alone
TTITLE4=Jambalya
TTITLE5=A Six Pack to Go
TTITLE6=The Battle of New Orleans
TTITLE7=Uncle Pen
TTITLE8=Am I That Easy to Forget?
TTITLE9=Truck Drivin' Man
TTITLE10=The Window Up Above
TTITLE11=Lost Highway
TTITLE12=Goodnight Irene
TTITLE13=Hey Good Lookin'
TTITLE14=In the Jailhouse Now
EXTD=
EXTT0=
EXTT1=
EXTT2=
EXTT3=
EXTT4=
EXTT5=
EXTT6=
EXTT7=
EXTT8=
EXTT9=
EXTT10=
EXTT11=
EXTT12=
EXTT13=
EXTT14=
PLAYORDER=
